<svg xmlns="http://www.w3.org/2000/svg" width="1254" height="1254">
<path style="fill:#0175c1; stroke:none;" d="M236 44.4244C213.385 47.3936 192.065 51.5496 171 60.8619C118.045 84.2721 76.573 131.077 58.6713 186C47.8061 219.335 49 253.413 49 288L49 416L49 870L49 958C49 979.868 47.6099 1002.28 50.2863 1024C54.4994 1058.2 67.3611 1091.05 87.4282 1119C118.276 1161.97 166.557 1193.13 219 1201.56C236.913 1204.44 254.918 1204 273 1204L340 1204L799 1204L946 1204C973.961 1204 1003.36 1206.57 1031 1201.92C1110.99 1188.44 1175.21 1131.02 1197.57 1053C1206.04 1023.46 1204 992.394 1204 962L1204 828L1204 374L1204 276C1204 252.218 1205.02 228.404 1199.99 205C1193.69 175.765 1180.33 147.665 1162.11 124C1132.03 84.9167 1087.71 56.4034 1039 47.3102C1018.7 43.5214 998.554 44 978 44L904 44L457 44L310 44L263 44C254.102 44 244.832 43.265 236 44.4244M374 809C374 780.308 372.123 751.712 374.09 723C376.997 680.55 385.956 637.83 401.064 598C414.215 563.329 432.636 530.234 455.424 501C473.613 477.667 494.78 456.61 514.911 435C548 399.478 580.666 363.334 615 329C639.106 304.894 662.004 280.77 693 265.27C779.548 221.99 890.865 239.341 955.714 313C1005.56 369.622 1025.46 442.948 1011.61 517C1008.51 533.579 1004.21 549.454 997.579 565C994.57 572.052 991.82 579.722 984.996 584.005C981.351 586.294 976.998 586.996 973 588.435C962.403 592.25 951.717 595.581 941 599.022C913.349 607.899 885.902 617.816 858 625.859C846.594 629.147 835.305 633.033 824 636.656C817.858 638.624 810.915 640.447 807.032 646.093C802.412 652.813 807.221 660.245 814 662.991C817.386 664.362 821.416 664.088 825 664.576C842.284 666.93 861.143 664.737 878 669.493C888.476 672.449 893.152 682.959 889.441 693C886.302 701.489 879.099 708.314 873.282 715C865.526 723.914 856.308 733.17 846 739.124C836.802 744.437 826.035 746.8 816 750.022C797.022 756.115 777.911 761.789 759 768.066C751.077 770.696 743.05 773.16 735 775.36C729.388 776.894 722.582 778.224 718.228 782.39C712.3 788.063 715.914 795.835 722.015 799.471C731.522 805.136 753.609 806.195 750.659 822C750.33 823.761 749.69 825.447 748.772 826.985C745.343 832.733 738.564 836.417 733 839.797C721.941 846.515 710.608 852.537 699 858.244C644.35 885.112 584.342 895 524 895L466 895C459.428 895 448.744 892.977 443 896.603C434.059 902.248 426.464 912.536 419 920L371 968C366.251 972.75 361.661 978.349 356 982.034C345.65 988.77 330.529 988.886 320 982.521C316.035 980.124 312.816 976.823 310.225 973C290.249 943.528 326.858 917.142 345 899L360 884C442.672 801.328 524.345 717.655 607 635C629.333 612.667 651.721 590.388 673.999 568C684.681 557.266 691.27 543.161 677.985 531.185C669.425 523.47 658.698 524.188 650 531.329C643.28 536.847 638.022 543.812 631.985 550C620.14 562.142 607.995 574.005 596 586C545.154 636.846 494.842 688.158 444 739C428.158 754.843 412.833 771.167 397 787C389.626 794.374 382.535 802.988 374 809z"/>
</svg>
